HIERARCHY
ROOT hip
{
  OFFSET 0 0 0
  CHANNELS 6 Xposition Yposition Zposition Zrotation Yrotation Xrotation
  JOINT abdomen
  {
    OFFSET 0 20.6881 -0.73152
    CHANNELS 3 Zrotation Xrotation Yrotation
    JOINT chest
    {
      OFFSET 0 11.7043 -0.48768
      CHANNELS 3 Zrotation Xrotation Yrotation
      JOINT neck
      {
        OFFSET 0 22.1894 -2.19456
        CHANNELS 3 Zrotation Xrotation Yrotation
        JOINT head
        {
          OFFSET -0.24384 7.07133 1.2192
          CHANNELS 3 Zrotation Xrotation Yrotation
          JOINT leftEye
          {
            OFFSET 4.14528 8.04674 8.04672
            CHANNELS 3 Zrotation Xrotation Yrotation
            End Site
            {
              OFFSET 1 0 0
            }
          }
          JOINT rightEye
          {
            OFFSET -3.6576 8.04674 8.04672
            CHANNELS 3 Zrotation Xrotation Yrotation
            End Site
            {
              OFFSET 1 0 0
            }
          }
        }
      }
      JOINT rCollar
      {
        OFFSET -2.68224 19.2634 -4.8768
        CHANNELS 3 Zrotation Xrotation Yrotation
        JOINT rShldr
        {
          OFFSET -8.77824 -1.95073 1.46304
          CHANNELS 3 Zrotation Xrotation Yrotation
          JOINT rForeArm
          {
            OFFSET -28.1742 -1.7115 0.48768
            CHANNELS 3 Zrotation Xrotation Yrotation
            JOINT rHand
            {
              OFFSET -22.5879 0.773209 7.07136
              CHANNELS 3 Zrotation Xrotation Yrotation
              JOINT rThumb1
              {
                OFFSET -1.2192 -0.487915 3.41376
                CHANNELS 3 Zrotation Xrotation Yrotation
                JOINT rThumb2
                {
                  OFFSET -3.37035 -0.52449 3.41376
                  CHANNELS 3 Zrotation Xrotation Yrotation
                  End Site
                  {
                    OFFSET -1.78271 -1.18214 1.43049
                  }
                }
              }
              JOINT rIndex1
              {
                OFFSET -7.75947 0.938293 5.60832
                CHANNELS 3 Zrotation Xrotation Yrotation
                JOINT rIndex2
                {
                  OFFSET -2.54057 -0.884171 1.56538
                  CHANNELS 3 Zrotation Xrotation Yrotation
                  End Site
                  {
                    OFFSET -1.62519 -0.234802 1.16502
                  }
                }
              }
              JOINT rMid1
              {
                OFFSET -8.24714 1.18213 3.41376
                CHANNELS 3 Zrotation Xrotation Yrotation
                JOINT rMid2
                {
                  OFFSET -3.10165 -0.590103 1.0647
                  CHANNELS 3 Zrotation Xrotation Yrotation
                  End Site
                  {
                    OFFSET -2.48547 -0.328903 0.83742
                  }
                }
              }
              JOINT rRing1
              {
                OFFSET -8.82822 0.546677 1.51678
                CHANNELS 3 Zrotation Xrotation Yrotation
                JOINT rRing2
                {
                  OFFSET -2.60934 -0.819778 -0.0198488
                  CHANNELS 3 Zrotation Xrotation Yrotation
                  End Site
                  {
                    OFFSET -2.33842 -0.294052 0.168128
                  }
                }
              }
              JOINT rPinky1
              {
                OFFSET -8.27202 -0.0477905 -0.4584
                CHANNELS 3 Zrotation Xrotation Yrotation
                JOINT rPinky2
                {
                  OFFSET -1.82734 -0.647385 -0.700984
                  CHANNELS 3 Zrotation Xrotation Yrotation
                  End Site
                  {
                    OFFSET -1.69225 -0.51767 -0.607171
                  }
                }
              }
            }
          }
        }
      }
      JOINT lCollar
      {
        OFFSET 2.68224 19.2634 -4.8768
        CHANNELS 3 Zrotation Xrotation Yrotation
        JOINT lShldr
        {
          OFFSET 8.77824 -1.95073 1.46304
          CHANNELS 3 Zrotation Xrotation Yrotation
          JOINT lForeArm
          {
            OFFSET 28.1742 -1.7115 0.48768
            CHANNELS 3 Zrotation Xrotation Yrotation
            JOINT lHand
            {
              OFFSET 22.5879 0.773209 7.07136
              CHANNELS 3 Zrotation Xrotation Yrotation
              JOINT lThumb1
              {
                OFFSET 1.2192 -0.487915 3.41376
                CHANNELS 3 Zrotation Xrotation Yrotation
                JOINT lThumb2
                {
                  OFFSET 3.37035 -0.52449 3.41376
                  CHANNELS 3 Zrotation Xrotation Yrotation
                  End Site
                  {
                    OFFSET 1.78271 -1.18214 1.43049
                  }
                }
              }
              JOINT lIndex1
              {
                OFFSET 7.75947 0.938293 5.60832
                CHANNELS 3 Zrotation Xrotation Yrotation
                JOINT lIndex2
                {
                  OFFSET 2.54057 -0.884171 1.56538
                  CHANNELS 3 Zrotation Xrotation Yrotation
                  End Site
                  {
                    OFFSET 1.62519 -0.234802 1.16502
                  }
                }
              }
              JOINT lMid1
              {
                OFFSET 8.24714 1.18213 3.41376
                CHANNELS 3 Zrotation Xrotation Yrotation
                JOINT lMid2
                {
                  OFFSET 3.10165 -0.590103 1.0647
                  CHANNELS 3 Zrotation Xrotation Yrotation
                  End Site
                  {
                    OFFSET 2.48547 -0.328903 0.83742
                  }
                }
              }
              JOINT lRing1
              {
                OFFSET 8.82822 0.546677 1.51678
                CHANNELS 3 Zrotation Xrotation Yrotation
                JOINT lRing2
                {
                  OFFSET 2.60934 -0.819778 -0.0198488
                  CHANNELS 3 Zrotation Xrotation Yrotation
                  End Site
                  {
                    OFFSET 2.33842 -0.294052 0.168128
                  }
                }
              }
              JOINT lPinky1
              {
                OFFSET 8.27202 -0.0477905 -0.4584
                CHANNELS 3 Zrotation Xrotation Yrotation
                JOINT lPinky2
                {
                  OFFSET 1.82734 -0.647385 -0.700984
                  CHANNELS 3 Zrotation Xrotation Yrotation
                  End Site
                  {
                    OFFSET 1.69225 -0.51767 -0.607171
                  }
                }
              }
            }
          }
        }
      }
    }
  }
  JOINT rButtock
  {
    OFFSET -8.77824 4.35084 1.2192
    CHANNELS 3 Zrotation Xrotation Yrotation
    JOINT rThigh
    {
      OFFSET 0 -1.70687 -2.19456
      CHANNELS 3 Zrotation Xrotation Yrotation
      JOINT rShin
      {
        OFFSET 0 -36.8199 0.73152
        CHANNELS 3 Zrotation Xrotation Yrotation
        JOINT rFoot
        {
          OFFSET 0.73152 -45.1104 -5.12064
          CHANNELS 3 Zrotation Xrotation Yrotation
          End Site
          {
            OFFSET -1.1221 -3.69964 12.103
          }
        }
      }
    }
  }
  JOINT lButtock
  {
    OFFSET 8.77824 4.35084 1.2192
    CHANNELS 3 Zrotation Xrotation Yrotation
    JOINT lThigh
    {
      OFFSET 0 -1.70687 -2.19456
      CHANNELS 3 Zrotation Xrotation Yrotation
      JOINT lShin
      {
        OFFSET 0 -36.8199 0.73152
        CHANNELS 3 Zrotation Xrotation Yrotation
        JOINT lFoot
        {
          OFFSET -0.73152 -45.1104 -5.12064
          CHANNELS 3 Zrotation Xrotation Yrotation
          End Site
          {
            OFFSET 1.1221 -3.69964 12.103
          }
        }
      }
    }
  }
}
MOTION
Frames:	7
Frame Time:	0.00833333
20.0238 84.4162 -135.85 -178.531 -56.977 174.01 -0.138209 2.35 9.39471 -5.83008 -5.17807 2.12106 -1.26849 17.2961 -5.14214 -7.20993 -13.1409 -11.7726 -0.0 0.0 0.0 -0.0 0.0 0.0 -4.09201e-14 -4.05454e-13 -3.42893e-13 -1.61426 50.9068 35.9616 -23.1919 -50.3734 105.748 -21.7324 -73.7029 -28.7312 1.8386e-10 3.76397e-11 7.84904e-11 3.12316e-10 7.51309e-11 1.41751e-10 1.83865e-10 3.76379e-11 7.84737e-11 7.73091 5.47488 0.417314 1.83855e-10 3.76424e-11 7.8493e-11 2.90554 0.965183 0.102902 1.83866e-10 3.76415e-11 7.84912e-11 10.2786 0.731801 0.0259123 1.83858e-10 3.76425e-11 7.84959e-11 2.22167 -0.733487 -0.20892 -4.08995e-14 -4.05463e-13 -3.43173e-13 -67.4125 41.8215 2.9983 13.0147 -6.18622 -23.592 0.548094 -20.5587 3.02148 4.23963e-10 -4.28761e-11 -3.94389e-10 7.36835e-10 -7.358e-11 -6.72466e-10 4.23963e-10 -4.28671e-11 -3.94383e-10 -7.73091 5.47488 -0.417314 4.23966e-10 -4.28659e-11 -3.94385e-10 -2.90554 0.965183 -0.102902 4.23964e-10 -4.28645e-11 -3.94384e-10 -10.2786 0.731801 -0.0259123 4.23959e-10 -4.2864e-11 -3.94385e-10 -2.22167 -0.733487 0.20892 -2.03217e-16 0.0 -3.88251e-19 -5.79245 -7.7943 -3.93073 -0.218164 33.3114 0.836701 -9.87197 -22.5786 -18.7811 2.03217e-16 0.0 3.88251e-19 7.24318 -6.32587 13.2191 0.0402868 30.0099 -0.397315 1.56144 -14.7667 3.50693
20.1469 84.4159 -135.95 -178.546 -57.0423 173.999 -0.0258546 2.41353 9.31412 -5.78925 -5.11632 2.10495 -1.27536 17.3649 -5.20357 -6.97458 -13.1854 -11.8634 -0.0 0.0 0.0 -0.0 0.0 0.0 -2.23122e-14 -6.57972e-13 -4.73754e-13 -1.6345 50.6771 35.7644 -23.1513 -50.4194 105.868 -21.9121 -73.7942 -28.9183 2.38577e-10 2.72464e-10 3.66747e-10 3.89203e-10 4.97264e-10 6.34117e-10 2.3858e-10 2.72462e-10 3.66731e-10 7.73091 5.47488 0.417314 2.38571e-10 2.72467e-10 3.6675e-10 2.90554 0.965183 0.102902 2.38582e-10 2.72466e-10 3.66748e-10 10.2786 0.731801 0.0259123 2.38574e-10 2.72466e-10 3.66753e-10 2.22167 -0.733487 -0.20892 -2.22667e-14 -6.57981e-13 -4.74052e-13 -67.5066 41.7651 3.11329 13.0366 -6.20277 -23.6351 0.547673 -20.5513 3.02028 4.36654e-10 -7.77455e-11 -6.59603e-10 7.63444e-10 -1.34194e-10 -1.13033e-09 4.36658e-10 -7.77391e-11 -6.59603e-10 -7.73091 5.47488 -0.417314 4.36657e-10 -7.77366e-11 -6.59599e-10 -2.90554 0.965183 -0.102902 4.36656e-10 -7.77364e-11 -6.59599e-10 -10.2786 0.731801 -0.0259123 4.36651e-10 -7.77359e-11 -6.59599e-10 -2.22167 -0.733487 0.20892 -2.03217e-16 0.0 -3.88251e-19 -5.67257 -7.76731 -3.91046 -0.218279 33.2983 0.836731 -9.93989 -22.6204 -18.887 2.03217e-16 0.0 3.88251e-19 7.36661 -6.38829 13.2284 0.0418583 30.0665 -0.397108 1.53276 -14.6352 3.42869
20.2703 84.4162 -136.049 -178.572 -57.1132 173.994 0.070146 2.48095 9.233 -5.7404 -5.06226 2.08837 -1.29226 17.4369 -5.25512 -6.69909 -13.2405 -11.9301 -0.0 0.0 0.0 -0.0 0.0 0.0 -2.47986e-14 -8.8089e-13 -6.31605e-13 -1.66416 50.4471 35.5804 -23.114 -50.4614 105.977 -22.0807 -73.8789 -29.0939 2.17517e-10 6.32847e-10 8.39921e-10 3.25806e-10 1.15183e-09 1.43558e-09 2.1752e-10 6.32847e-10 8.39909e-10 7.73091 5.47488 0.417314 2.17512e-10 6.3285e-10 8.39924e-10 2.90554 0.965183 0.102902 2.17522e-10 6.32848e-10 8.39923e-10 10.2786 0.731801 0.0259123 2.17514e-10 6.32848e-10 8.3993e-10 2.22167 -0.733487 -0.20892 -2.47606e-14 -8.80894e-13 -6.319e-13 -67.6123 41.7276 3.23545 13.0677 -6.22628 -23.6964 0.548912 -20.5732 3.02381 6.23051e-10 -1.70618e-10 -1.55445e-09 1.09773e-09 -2.95563e-10 -2.67395e-09 6.23057e-10 -1.70614e-10 -1.55445e-09 -7.73091 5.47488 -0.417314 6.23054e-10 -1.70611e-10 -1.55444e-09 -2.90554 0.965183 -0.102902 6.23054e-10 -1.70612e-10 -1.55444e-09 -10.2786 0.731801 -0.0259123 6.23052e-10 -1.70611e-10 -1.55445e-09 -2.22167 -0.733487 0.20892 -2.03217e-16 0.0 -3.88251e-19 -5.55857 -7.74228 -3.87739 -0.218315 33.2901 0.83682 -10.0028 -22.6793 -18.9737 2.03217e-16 0.0 3.88251e-19 7.4833 -6.44764 13.2454 0.0432036 30.1161 -0.39662 1.50225 -14.4932 3.34511
20.3944 84.4168 -136.149 -178.606 -57.1866 173.993 0.156843 2.54852 9.1514 -5.68564 -5.01208 2.07153 -1.31643 17.5112 -5.29805 -6.38874 -13.3067 -11.9757 -0.0 0.0 0.0 -0.0 0.0 0.0 -3.83047e-14 -1.09866e-12 -8.10945e-13 -1.69928 50.2154 35.406 -23.0803 -50.4992 106.075 -22.2431 -73.9594 -29.2629 1.4022e-10 1.09595e-09 1.45729e-09 1.57825e-10 1.9949e-09 2.4783e-09 1.40224e-10 1.09595e-09 1.45728e-09 7.73091 5.47488 0.417314 1.40217e-10 1.09595e-09 1.45729e-09 2.90554 0.965183 0.102902 1.40226e-10 1.09595e-09 1.45729e-09 10.2786 0.731801 0.0259123 1.40216e-10 1.09595e-09 1.4573e-09 2.22167 -0.733487 -0.20892 -3.82952e-14 -1.09866e-12 -8.11225e-13 -67.7274 41.7142 3.36227 13.1072 -6.25617 -23.7745 0.551182 -20.6133 3.03025 9.18749e-10 -3.04429e-10 -2.88514e-09 1.62626e-09 -5.28062e-10 -4.96936e-09 9.18753e-10 -3.04426e-10 -2.88513e-09 -7.73091 5.47488 -0.417314 9.1875e-10 -3.04425e-10 -2.88513e-09 -2.90554 0.965183 -0.102902 9.1875e-10 -3.04426e-10 -2.88514e-09 -10.2786 0.731801 -0.0259123 9.18753e-10 -3.04425e-10 -2.88514e-09 -2.22167 -0.733487 0.20892 -2.03217e-16 0.0 -3.88251e-19 -5.44647 -7.71816 -3.83528 -0.218323 33.2834 0.836857 -10.062 -22.7514 -19.0453 2.03217e-16 0.0 3.88251e-19 7.59843 -6.50679 13.2707 0.04444 30.1622 -0.395933 1.47007 -14.3426 3.25592
20.5205 84.4178 -136.247 -178.647 -57.2659 173.996 0.236957 2.61862 9.06832 -5.62719 -4.96594 2.0542 -1.33866 17.5858 -5.33592 -6.06577 -13.3847 -12.0095 -0.0 0.0 0.0 -0.0 0.0 0.0 -5.07581e-14 -1.20194e-12 -9.06794e-13 -1.74667 49.9834 35.2486 -23.0505 -50.5325 106.162 -22.3784 -74.0258 -29.4036 5.30706e-11 1.43307e-09 1.91201e-09 -1.77399e-11 2.61014e-09 3.24479e-09 5.30749e-11 1.43307e-09 1.912e-09 7.73091 5.47488 0.417314 5.30697e-11 1.43307e-09 1.91201e-09 2.90554 0.965183 0.102902 5.30763e-11 1.43307e-09 1.91201e-09 10.2786 0.731801 0.0259123 5.3065e-11 1.43306e-09 1.91202e-09 2.22167 -0.733487 -0.20892 -5.07874e-14 -1.20193e-12 -9.07055e-13 -67.8485 41.7138 3.48922 13.1512 -6.28949 -23.8614 0.554208 -20.6667 3.03883 1.12223e-09 -4.02575e-10 -3.91478e-09 1.9911e-09 -6.98669e-10 -6.74607e-09 1.12223e-09 -4.02574e-10 -3.91477e-09 -7.73091 5.47488 -0.417314 1.12223e-09 -4.02575e-10 -3.91478e-09 -2.90554 0.965183 -0.102902 1.12223e-09 -4.02576e-10 -3.91478e-09 -10.2786 0.731801 -0.0259123 1.12224e-09 -4.02575e-10 -3.91479e-09 -2.22167 -0.733487 0.20892 -2.03217e-16 0.0 -3.88251e-19 -5.33882 -7.69778 -3.79248 -0.218285 33.2787 0.836959 -10.1191 -22.8238 -19.1131 2.03217e-16 0.0 3.88251e-19 7.71338 -6.57243 13.307 0.0458331 30.2145 -0.395322 1.43618 -14.1838 3.16042
20.6485 84.4191 -136.344 -178.697 -57.3458 174.003 0.313226 2.69361 8.98278 -5.56729 -4.92399 2.03615 -1.34972 17.6583 -5.37232 -5.75245 -13.475 -12.0406 -0.0 0.0 0.0 -0.0 0.0 0.0 -5.00865e-14 -1.0814e-12 -8.14172e-13 -1.81292 49.7523 35.1155 -23.0247 -50.5612 106.237 -22.465 -74.068 -29.4937 2.45224e-12 1.41549e-09 1.89726e-09 -1.03891e-10 2.58122e-09 3.21757e-09 2.45698e-12 1.41549e-09 1.89726e-09 7.73091 5.47488 0.417314 2.45256e-12 1.41548e-09 1.89726e-09 2.90554 0.965183 0.102902 2.45749e-12 1.41548e-09 1.89726e-09 10.2786 0.731801 0.0259123 2.44585e-12 1.41548e-09 1.89727e-09 2.22167 -0.733487 -0.20892 -5.0154e-14 -1.08138e-12 -8.14421e-13 -67.9718 41.7154 3.61168 13.1956 -6.32326 -23.9492 0.557712 -20.7285 3.04876 1.03199e-09 -3.88454e-10 -3.90648e-09 1.83433e-09 -6.74357e-10 -6.73361e-09 1.03199e-09 -3.88454e-10 -3.90647e-09 -7.73091 5.47488 -0.417314 1.03199e-09 -3.88456e-10 -3.90648e-09 -2.90554 0.965183 -0.102902 1.03199e-09 -3.88457e-10 -3.90648e-09 -10.2786 0.731801 -0.0259123 1.032e-09 -3.88455e-10 -3.90649e-09 -2.22167 -0.733487 0.20892 -2.03217e-16 0.0 -3.88251e-19 -5.23814 -7.68391 -3.7573 -0.218186 33.2765 0.837245 -10.1762 -22.8834 -19.1877 2.03217e-16 0.0 3.88251e-19 7.8296 -6.65122 13.3575 0.0476492 30.2828 -0.395063 1.40052 -14.0174 3.05793
20.7781 84.4202 -136.437 -178.767 -57.4213 174.031 0.380214 2.7741 8.89441 -5.50487 -4.88833 2.01715 -1.34417 17.7274 -5.40654 -5.45875 -13.5729 -12.0693 -0.0 0.0 0.0 -0.0 0.0 0.0 -2.93673e-14 -5.69146e-13 -4.05843e-13 -1.90303 49.5252 35.0122 -23.0033 -50.5847 106.299 -22.4901 -74.0801 -29.5198 1.09231e-11 8.07688e-10 1.1007e-09 -4.42248e-11 1.48027e-09 1.86861e-09 1.09281e-11 8.07697e-10 1.1007e-09 7.73091 5.47488 0.417314 1.09238e-11 8.07687e-10 1.1007e-09 2.90554 0.965183 0.102902 1.09274e-11 8.07685e-10 1.1007e-09 10.2786 0.731801 0.0259123 1.09167e-11 8.07686e-10 1.10071e-09 2.22167 -0.733487 -0.20892 -2.94808e-14 -5.69126e-13 -4.06091e-13 -68.1014 41.7165 3.73258 13.2396 -6.35689 -24.0363 0.561856 -20.8012 3.06047 4.40306e-10 -1.85441e-10 -2.15753e-09 7.87386e-10 -3.22104e-10 -3.72086e-09 4.40298e-10 -1.85442e-10 -2.15752e-09 -7.73091 5.47488 -0.417314 4.40303e-10 -1.85444e-10 -2.15753e-09 -2.90554 0.965183 -0.102902 4.40302e-10 -1.85444e-10 -2.15754e-09 -10.2786 0.731801 -0.0259123 4.40314e-10 -1.85442e-10 -2.15754e-09 -2.22167 -0.733487 0.20892 -2.03217e-16 0.0 -3.88251e-19 -5.15229 -7.67925 -3.73477 -0.217999 33.279 0.837869 -10.232 -22.9237 -19.2708 2.03217e-16 0.0 3.88251e-19 7.9386 -6.74138 13.4176 0.0498014 30.3635 -0.395123 1.36524 -13.8451 2.95567
